<svg width="37" height="29" viewBox="0 0 37 29" fill="none" xmlns="http://www.w3.org/2000/svg">
<path d="M0 1.13171C0 0.506683 0.506683 0 1.13171 0H26.0293C31.6545 0 36.2146 4.56014 36.2146 10.1854V18.7675C36.2146 24.3927 31.6545 28.9529 26.0293 28.9529H10.1854C4.56014 28.9529 0 24.3927 0 18.7675V1.13171Z" fill="url(#paint0_linear_38_671)"/>
<path d="M7.63885 4.05497C7.63885 3.84663 7.46995 3.67773 7.26161 3.67773H4.52665C4.31831 3.67773 4.14941 3.84663 4.14941 4.05497V18.9558C4.14941 22.2632 6.83061 24.9444 10.138 24.9444H10.9868C11.1952 24.9444 11.364 24.7755 11.364 24.5672V21.8322C11.364 21.6239 11.1952 21.455 10.9868 21.455H10.138C8.75777 21.455 7.63885 20.336 7.63885 18.9558V12.6842H10.9868C11.1952 12.6842 11.364 12.5153 11.364 12.307V9.57204C11.364 9.3637 11.1952 9.19481 10.9868 9.19481H7.63885V4.05497Z" fill="url(#paint1_linear_38_671)"/>
<path d="M13.0145 21.455C12.8061 21.455 12.6372 21.6239 12.6372 21.8322V24.5672C12.6372 24.7755 12.8061 24.9444 13.0145 24.9444H26.0527C29.295 24.9444 31.9234 22.316 31.9234 19.0737C31.9234 15.8314 29.295 13.2029 26.0527 13.2029H18.2958C16.9936 13.2029 15.938 12.1474 15.938 10.8452C15.938 9.54308 16.9936 8.48749 18.2958 8.48749H25.4632V9.38995C25.4632 9.66943 25.7566 9.85187 26.0072 9.72832L31.3783 7.08115C31.6589 6.94284 31.6589 6.54271 31.3783 6.4044L26.0072 3.75723C25.7566 3.63368 25.4632 3.81612 25.4632 4.0956V4.99806H18.2958C15.0665 4.99806 12.4486 7.61592 12.4486 10.8452C12.4486 14.0745 15.0665 16.6924 18.2958 16.6924H26.0527C27.3678 16.6924 28.434 17.7585 28.434 19.0737C28.434 20.3888 27.3678 21.455 26.0527 21.455H13.0145Z" fill="url(#paint2_linear_38_671)"/>
<defs>
<linearGradient id="paint0_linear_38_671" x1="4.30661" y1="0.490725" x2="30.0277" y2="28.8829" gradientUnits="userSpaceOnUse">
<stop stop-color="#E13446"/>
<stop offset="1" stop-color="#B31E2E"/>
</linearGradient>
<linearGradient id="paint1_linear_38_671" x1="6.50714" y1="3.48912" x2="30.7445" y2="26.6891" gradientUnits="userSpaceOnUse">
<stop stop-color="white"/>
<stop offset="1" stop-color="white" stop-opacity="0.76"/>
</linearGradient>
<linearGradient id="paint2_linear_38_671" x1="6.50714" y1="3.48912" x2="30.7445" y2="26.6891" gradientUnits="userSpaceOnUse">
<stop stop-color="white"/>
<stop offset="1" stop-color="white" stop-opacity="0.76"/>
</linearGradient>
</defs>
</svg>
