<svg width="371" height="29" viewBox="0 0 371 29" fill="none" xmlns="http://www.w3.org/2000/svg">
<path d="M0 1.13171C0 0.506683 0.506683 0 1.13171 0H26.0293C31.6545 0 36.2146 4.56014 36.2146 10.1854V18.7675C36.2146 24.3927 31.6545 28.9529 26.0293 28.9529H10.1854C4.56014 28.9529 0 24.3927 0 18.7675V1.13171Z" fill="url(#paint0_linear_306_3025)"/>
<path d="M7.63885 4.05497C7.63885 3.84663 7.46995 3.67773 7.26161 3.67773H4.52665C4.31831 3.67773 4.14941 3.84663 4.14941 4.05497V18.9558C4.14941 22.2632 6.83061 24.9444 10.138 24.9444H10.9868C11.1952 24.9444 11.364 24.7755 11.364 24.5672V21.8322C11.364 21.6239 11.1952 21.455 10.9868 21.455H10.138C8.75777 21.455 7.63885 20.336 7.63885 18.9558V12.6842H10.9868C11.1952 12.6842 11.364 12.5153 11.364 12.307V9.57204C11.364 9.3637 11.1952 9.19481 10.9868 9.19481H7.63885V4.05497Z" fill="url(#paint1_linear_306_3025)"/>
<path d="M13.0145 21.455C12.8061 21.455 12.6372 21.6239 12.6372 21.8322V24.5672C12.6372 24.7755 12.8061 24.9444 13.0145 24.9444H26.0527C29.295 24.9444 31.9234 22.316 31.9234 19.0737C31.9234 15.8314 29.295 13.2029 26.0527 13.2029H18.2958C16.9936 13.2029 15.938 12.1474 15.938 10.8452C15.938 9.54308 16.9936 8.48749 18.2958 8.48749H25.4632V9.38995C25.4632 9.66943 25.7566 9.85187 26.0072 9.72832L31.3783 7.08115C31.6589 6.94284 31.6589 6.54271 31.3783 6.4044L26.0072 3.75723C25.7566 3.63368 25.4632 3.81612 25.4632 4.0956V4.99806H18.2958C15.0665 4.99806 12.4486 7.61592 12.4486 10.8452C12.4486 14.0745 15.0665 16.6924 18.2958 16.6924H26.0527C27.3678 16.6924 28.434 17.7585 28.434 19.0737C28.434 20.3888 27.3678 21.455 26.0527 21.455H13.0145Z" fill="url(#paint2_linear_306_3025)"/>
<g clip-path="url(#clip0_306_3025)">
<path fill-rule="evenodd" clip-rule="evenodd" d="M125.166 9.38574L127.019 9.39167L127 15.4315C127 15.4319 127 15.4324 127 15.4329C127 16.4076 127.317 17.5822 128.029 18.4924C128.715 19.3698 129.8 20.0456 131.479 20.0456V21.899C129.22 21.899 127.601 20.9531 126.569 19.6344C125.564 18.349 125.146 16.7539 125.146 15.4315V15.43L125.166 9.38574Z" fill="white"/>
<path fill-rule="evenodd" clip-rule="evenodd" d="M69.6221 15.6147C69.6221 12.1441 72.4356 9.33057 75.9062 9.33057H81.9586V11.1839H75.9062C73.4591 11.1839 71.4754 13.1676 71.4754 15.6147C71.4754 18.0617 73.4591 20.0454 75.9062 20.0454H81.9586V21.8988H75.9062C72.4356 21.8988 69.6221 19.0853 69.6221 15.6147Z" fill="white"/>
<path fill-rule="evenodd" clip-rule="evenodd" d="M98.6963 15.6147C98.6963 12.1441 101.51 9.33057 104.98 9.33057H111.033V11.1839H104.98C102.533 11.1839 100.55 13.1676 100.55 15.6147C100.55 18.0617 102.533 20.0454 104.98 20.0454H111.033V21.8988H104.98C101.51 21.8988 98.6963 19.0853 98.6963 15.6147Z" fill="white"/>
<path fill-rule="evenodd" clip-rule="evenodd" d="M56.3584 15.5859C56.3584 12.1633 59.133 9.38867 62.5556 9.38867C65.9782 9.38867 68.7528 12.1633 68.7528 15.5859V21.8989H66.8995V17.4972H58.2118V21.8989H56.3584V15.5859ZM58.2118 15.6438H66.8995V15.5859C66.8995 13.1868 64.9547 11.242 62.5556 11.242C60.1566 11.242 58.2118 13.1868 58.2118 15.5859V15.6438Z" fill="white"/>
<path fill-rule="evenodd" clip-rule="evenodd" d="M111.902 15.5859C111.902 12.1633 114.677 9.38867 118.1 9.38867C121.522 9.38867 124.297 12.1633 124.297 15.5859V21.8989H122.443V17.4972H113.756V21.8989H111.902V15.5859ZM113.756 15.6438H122.443V15.5859C122.443 13.1868 120.499 11.242 118.1 11.242C115.701 11.242 113.756 13.1868 113.756 15.5859V15.6438Z" fill="white"/>
<path fill-rule="evenodd" clip-rule="evenodd" d="M48.3949 11.1839H43.1533V9.33057H55.4898V11.1839H50.2483V21.8408H48.3949V11.1839Z" fill="white"/>
<path fill-rule="evenodd" clip-rule="evenodd" d="M88.0687 11.1839H82.8271V9.33057H95.1637V11.1839H89.9221V21.8408H88.0687V11.1839Z" fill="white"/>
<path fill-rule="evenodd" clip-rule="evenodd" d="M96.0322 21.8408V9.33057H97.8856V21.8408H96.0322Z" fill="white"/>
<path fill-rule="evenodd" clip-rule="evenodd" d="M183.917 11.2376H178.641V9.43066H191V11.2376H185.724V21.8626H183.917V11.2376Z" fill="white"/>
<path fill-rule="evenodd" clip-rule="evenodd" d="M165.16 15.6105C165.16 12.1975 167.927 9.43066 171.34 9.43066H177.664V11.2376H171.34C169.216 11.2376 167.445 12.7527 167.05 14.7612H175.894V16.5682H166.967V21.8626H165.16V15.6105Z" fill="white"/>
<path fill-rule="evenodd" clip-rule="evenodd" d="M149.187 9.39453H150.993V14.7432H159.92V9.39453H161.727V21.8988H159.92V16.5501H150.993V21.8988H149.187V9.39453Z" fill="white"/>
<path fill-rule="evenodd" clip-rule="evenodd" d="M162.559 21.8988V9.39453H164.366V21.8988H162.559Z" fill="white"/>
<path fill-rule="evenodd" clip-rule="evenodd" d="M139.61 11.1654C138.56 11.1654 137.767 11.9495 137.767 12.9362C137.767 13.9229 138.56 14.707 139.61 14.707H144.846C146.834 14.707 148.392 16.3956 148.392 18.321C148.392 20.2783 146.803 21.8627 144.846 21.8627H135.96V20.0557H144.846C145.808 20.0557 146.585 19.2777 146.585 18.321C146.585 17.3324 145.776 16.514 144.846 16.514H139.61C137.626 16.514 135.96 14.9833 135.96 12.9362C135.96 10.8891 137.626 9.3584 139.61 9.3584H148.356V11.1654H139.61Z" fill="white"/>
</g>
<path d="M226.105 10.7324H222.467V22H220.99V10.7324H217.36V9.39648H226.105V10.7324ZM237.127 22H235.369L233.26 18.4668C233.066 18.1387 232.879 17.8604 232.697 17.6318C232.516 17.3975 232.328 17.207 232.135 17.0605C231.947 16.9141 231.742 16.8086 231.52 16.7441C231.303 16.6738 231.057 16.6387 230.781 16.6387H229.568V22H228.092V9.39648H231.854C232.404 9.39648 232.911 9.4668 233.374 9.60742C233.843 9.74219 234.247 9.9502 234.587 10.2314C234.933 10.5127 235.202 10.8643 235.396 11.2861C235.589 11.7021 235.686 12.1914 235.686 12.7539C235.686 13.1934 235.618 13.5977 235.483 13.9668C235.354 14.3301 235.167 14.6553 234.921 14.9424C234.681 15.2295 234.388 15.4756 234.042 15.6807C233.702 15.8799 233.318 16.0352 232.891 16.1465V16.1816C233.102 16.2754 233.283 16.3838 233.436 16.5068C233.594 16.624 233.743 16.7646 233.884 16.9287C234.024 17.0928 234.162 17.2803 234.297 17.4912C234.438 17.6963 234.593 17.9365 234.763 18.2119L237.127 22ZM229.568 10.7324V15.3027H231.572C231.941 15.3027 232.281 15.2471 232.592 15.1357C232.908 15.0244 233.181 14.8662 233.409 14.6611C233.638 14.4502 233.816 14.1953 233.945 13.8965C234.074 13.5918 234.139 13.252 234.139 12.877C234.139 12.2031 233.919 11.6787 233.479 11.3037C233.046 10.9229 232.416 10.7324 231.59 10.7324H229.568ZM248.623 22H246.988L245.652 18.4668H240.309L239.052 22H237.408L242.242 9.39648H243.771L248.623 22ZM245.169 17.1396L243.191 11.7695C243.127 11.5938 243.062 11.3125 242.998 10.9258H242.963C242.904 11.2832 242.837 11.5645 242.761 11.7695L240.801 17.1396H245.169ZM251.963 22H250.486V9.39648H251.963V22ZM265.445 22H263.635L257.148 11.9541C256.984 11.7021 256.85 11.4385 256.744 11.1631H256.691C256.738 11.4326 256.762 12.0098 256.762 12.8945V22H255.285V9.39648H257.201L263.512 19.2842C263.775 19.6943 263.945 19.9756 264.021 20.1279H264.057C263.998 19.7646 263.969 19.1465 263.969 18.2734V9.39648H265.445V22ZM270.227 22H268.75V9.39648H270.227V22ZM283.709 22H281.898L275.412 11.9541C275.248 11.7021 275.113 11.4385 275.008 11.1631H274.955C275.002 11.4326 275.025 12.0098 275.025 12.8945V22H273.549V9.39648H275.465L281.775 19.2842C282.039 19.6943 282.209 19.9756 282.285 20.1279H282.32C282.262 19.7646 282.232 19.1465 282.232 18.2734V9.39648H283.709V22ZM296.436 21.1387C295.17 21.8535 293.764 22.2109 292.217 22.2109C290.418 22.2109 288.962 21.6309 287.849 20.4707C286.741 19.3105 286.188 17.7754 286.188 15.8652C286.188 13.9141 286.803 12.3145 288.033 11.0664C289.27 9.8125 290.834 9.18555 292.727 9.18555C294.098 9.18555 295.249 9.4082 296.181 9.85352V11.4883C295.161 10.8438 293.954 10.5215 292.56 10.5215C291.147 10.5215 289.99 11.0078 289.088 11.9805C288.186 12.9531 287.734 14.2129 287.734 15.7598C287.734 17.3535 288.153 18.6074 288.991 19.5215C289.829 20.4297 290.966 20.8838 292.401 20.8838C293.386 20.8838 294.238 20.6875 294.959 20.2949V16.7617H292.199V15.4258H296.436V21.1387ZM305.787 17.2363V22H304.311V9.39648H307.773C309.121 9.39648 310.164 9.72461 310.902 10.3809C311.646 11.0371 312.019 11.9629 312.019 13.1582C312.019 14.3535 311.605 15.332 310.779 16.0938C309.959 16.8555 308.849 17.2363 307.448 17.2363H305.787ZM305.787 10.7324V15.9004H307.334C308.354 15.9004 309.13 15.6689 309.663 15.2061C310.202 14.7373 310.472 14.0781 310.472 13.2285C310.472 11.5645 309.487 10.7324 307.519 10.7324H305.787ZM319.48 22.2109C317.693 22.2109 316.261 21.6221 315.183 20.4443C314.11 19.2666 313.574 17.7344 313.574 15.8477C313.574 13.8203 314.122 12.2031 315.218 10.9961C316.313 9.78906 317.805 9.18555 319.691 9.18555C321.432 9.18555 322.832 9.77148 323.893 10.9434C324.959 12.1152 325.492 13.6475 325.492 15.54C325.492 17.5967 324.947 19.2227 323.857 20.418C322.768 21.6133 321.309 22.2109 319.48 22.2109ZM319.586 10.5215C318.262 10.5215 317.187 10.999 316.36 11.9541C315.534 12.9092 315.121 14.1631 315.121 15.7158C315.121 17.2686 315.522 18.5195 316.325 19.4688C317.134 20.4121 318.186 20.8838 319.48 20.8838C320.863 20.8838 321.953 20.4326 322.75 19.5303C323.547 18.6279 323.945 17.3652 323.945 15.7422C323.945 14.0781 323.559 12.792 322.785 11.8838C322.012 10.9756 320.945 10.5215 319.586 10.5215ZM337.006 22H335.248L333.139 18.4668C332.945 18.1387 332.758 17.8604 332.576 17.6318C332.395 17.3975 332.207 17.207 332.014 17.0605C331.826 16.9141 331.621 16.8086 331.398 16.7441C331.182 16.6738 330.936 16.6387 330.66 16.6387H329.447V22H327.971V9.39648H331.732C332.283 9.39648 332.79 9.4668 333.253 9.60742C333.722 9.74219 334.126 9.9502 334.466 10.2314C334.812 10.5127 335.081 10.8643 335.274 11.2861C335.468 11.7021 335.564 12.1914 335.564 12.7539C335.564 13.1934 335.497 13.5977 335.362 13.9668C335.233 14.3301 335.046 14.6553 334.8 14.9424C334.56 15.2295 334.267 15.4756 333.921 15.6807C333.581 15.8799 333.197 16.0352 332.77 16.1465V16.1816C332.98 16.2754 333.162 16.3838 333.314 16.5068C333.473 16.624 333.622 16.7646 333.763 16.9287C333.903 17.0928 334.041 17.2803 334.176 17.4912C334.316 17.6963 334.472 17.9365 334.642 18.2119L337.006 22ZM329.447 10.7324V15.3027H331.451C331.82 15.3027 332.16 15.2471 332.471 15.1357C332.787 15.0244 333.06 14.8662 333.288 14.6611C333.517 14.4502 333.695 14.1953 333.824 13.8965C333.953 13.5918 334.018 13.252 334.018 12.877C334.018 12.2031 333.798 11.6787 333.358 11.3037C332.925 10.9229 332.295 10.7324 331.469 10.7324H329.447ZM345.391 10.7324H341.752V22H340.275V10.7324H336.646V9.39648H345.391V10.7324ZM355.902 22H354.268L352.932 18.4668H347.588L346.331 22H344.688L349.521 9.39648H351.051L355.902 22ZM352.448 17.1396L350.471 11.7695C350.406 11.5938 350.342 11.3125 350.277 10.9258H350.242C350.184 11.2832 350.116 11.5645 350.04 11.7695L348.08 17.1396H352.448ZM364.305 22H357.766V9.39648H359.242V20.6641H364.305V22Z" fill="#7B7B7B"/>
<rect x="204" y="4" width="1" height="23" fill="#383838"/>
<defs>
<linearGradient id="paint0_linear_306_3025" x1="4.30661" y1="0.490725" x2="30.0277" y2="28.8829" gradientUnits="userSpaceOnUse">
<stop stop-color="#E13446"/>
<stop offset="1" stop-color="#B31E2E"/>
</linearGradient>
<linearGradient id="paint1_linear_306_3025" x1="6.50714" y1="3.48912" x2="30.7445" y2="26.6891" gradientUnits="userSpaceOnUse">
<stop stop-color="white"/>
<stop offset="1" stop-color="white" stop-opacity="0.76"/>
</linearGradient>
<linearGradient id="paint2_linear_306_3025" x1="6.50714" y1="3.48912" x2="30.7445" y2="26.6891" gradientUnits="userSpaceOnUse">
<stop stop-color="white"/>
<stop offset="1" stop-color="white" stop-opacity="0.76"/>
</linearGradient>
<clipPath id="clip0_306_3025">
<rect width="147.847" height="14.9535" fill="white" transform="translate(43.1533 6.94531)"/>
</clipPath>
</defs>
</svg>
