<svg preserveAspectRatio="none" width="100%" height="100%" overflow="visible" style="display: block;" viewBox="0 0 40.8975 69.4239" fill="none" xmlns="http://www.w3.org/2000/svg">
<path id="Ellipse 1" d="M30.5799 68.7867C30.7804 69.3013 31.3602 69.5559 31.8748 69.3554L40.2604 66.0872C40.775 65.8866 41.0295 65.3069 40.829 64.7923C40.6284 64.2777 40.0487 64.0231 39.5341 64.2237L32.0802 67.1287L29.1752 59.6748C28.9746 59.1603 28.3949 58.9057 27.8803 59.1062C27.3657 59.3068 27.1111 59.8865 27.3117 60.4011L30.5799 68.7867ZM35.6759 48.4975H34.6759C34.6759 55.4439 33.2194 62.0474 30.596 68.0215L31.5116 68.4236L32.4272 68.8257C35.1598 62.6029 36.6759 55.726 36.6759 48.4975H35.6759ZM0.286133 0.95819L0 1.91638C20.0567 7.90569 34.6759 26.4957 34.6759 48.4975H35.6759H36.6759C36.6759 25.5873 21.4528 6.23532 0.572267 0L0.286133 0.95819Z" fill="url(#paint0_linear_0_26)"/>
<defs>
<linearGradient id="paint0_linear_0_26" x1="4.99261" y1="-2.80989" x2="17.981" y2="68.4236" gradientUnits="userSpaceOnUse">
<stop stop-color="#777777" stop-opacity="0"/>
<stop offset="1" stop-color="#777777"/>
</linearGradient>
</defs>
</svg>
