<svg preserveAspectRatio="none" width="100%" height="100%" overflow="visible" style="display: block;" viewBox="0 0 500 500" fill="none" xmlns="http://www.w3.org/2000/svg">
<g id="Mask group">
<mask id="mask0_0_8" style="mask-type:alpha" maskUnits="userSpaceOnUse" x="0" y="0" width="500" height="500">
<circle id="Ellipse 7" cx="250" cy="250" r="250" fill="var(--fill-0, #F3F3F3)"/>
</mask>
<g mask="url(#mask0_0_8)">
<path id="Vector" d="M159.463 66.2244C155.794 63.972 149.216 59.5235 146.006 54.8354C148.204 55.3197 151.38 55.6054 154.486 54.3985C155.339 54.0679 155.921 53.2915 156.003 52.3741C156.085 51.4477 155.647 50.5739 154.858 50.0909C152.264 48.5086 147.605 45.3785 145.197 42.0203C147.02 42.2023 148.64 42.1215 150.011 41.7846C150.927 41.5603 151.615 40.8454 151.804 39.9191C151.994 38.9953 151.643 38.0702 150.891 37.5052C148.724 35.8767 144.886 32.7889 143.196 30.1688C144.286 30.1098 145.201 29.8753 145.915 29.473C146.521 29.1309 146.942 28.539 147.073 27.8497C147.206 27.1437 147.024 26.4198 146.571 25.8625C145.207 24.1917 140.595 18.421 138.441 14.2966C138.023 13.4958 137.206 13 136.306 13C135.407 13 134.591 13.4984 134.173 14.2979C132.021 18.4223 127.408 24.193 126.046 25.8637C125.591 26.4198 125.408 27.1437 125.541 27.851C125.672 28.5416 126.094 29.1335 126.702 29.4756C127.429 29.8856 128.367 30.1201 129.439 30.1418C127.758 32.7684 123.899 35.8729 121.726 37.5065C120.972 38.0702 120.621 38.9953 120.811 39.9191C120.999 40.8454 121.686 41.5603 122.604 41.7858C123.977 42.1215 125.595 42.201 127.418 42.0216C125.014 45.3759 120.35 48.5086 117.758 50.0922C116.969 50.5739 116.529 51.4477 116.612 52.3741C116.693 53.2927 117.275 54.0679 118.128 54.3998C121.231 55.6041 124.41 55.321 126.61 54.8367C123.4 59.5222 116.82 63.972 113.152 66.2257C112.332 66.7292 111.888 67.6748 112.024 68.6306C112.16 69.5928 112.825 70.35 113.759 70.6076C120.72 72.5269 126.691 71.7197 130.821 70.491V80.1785C130.821 80.8178 131.34 81.3367 131.98 81.3367H140.645C141.284 81.3367 141.803 80.8178 141.803 80.1785V70.5012C144.166 71.1969 147.106 71.7556 150.487 71.7556C153.052 71.7556 155.87 71.434 158.865 70.6088C159.799 70.3513 160.463 69.5941 160.6 68.6306C160.735 67.6735 160.291 66.7292 159.471 66.2257L159.463 66.2244Z" fill="var(--fill-0, #74B08F)"/>
<path id="Vector_2" d="M352.463 85.2244C348.794 82.972 342.216 78.5235 339.006 73.8354C341.204 74.3197 344.38 74.6054 347.486 73.3985C348.339 73.0679 348.921 72.2915 349.003 71.3741C349.085 70.4477 348.647 69.5739 347.858 69.0909C345.264 67.5086 340.605 64.3785 338.197 61.0203C340.02 61.2023 341.64 61.1215 343.011 60.7846C343.927 60.5603 344.615 59.8454 344.804 58.9191C344.994 57.9953 344.643 57.0702 343.891 56.5052C341.724 54.8767 337.886 51.7889 336.196 49.1688C337.286 49.1098 338.201 48.8753 338.915 48.473C339.521 48.1309 339.942 47.539 340.073 46.8497C340.206 46.1437 340.024 45.4198 339.571 44.8625C338.207 43.1917 333.595 37.421 331.441 33.2966C331.023 32.4958 330.206 32 329.306 32C328.407 32 327.591 32.4984 327.173 33.2979C325.021 37.4223 320.408 43.193 319.046 44.8637C318.591 45.4198 318.408 46.1437 318.541 46.851C318.672 47.5416 319.094 48.1335 319.702 48.4756C320.429 48.8856 321.367 49.1201 322.439 49.1418C320.758 51.7684 316.899 54.8729 314.726 56.5065C313.972 57.0702 313.621 57.9953 313.811 58.9191C313.999 59.8454 314.686 60.5603 315.604 60.7858C316.977 61.1215 318.595 61.201 320.418 61.0216C318.014 64.3759 313.35 67.5086 310.758 69.0922C309.969 69.5739 309.529 70.4477 309.612 71.3741C309.693 72.2927 310.275 73.0679 311.128 73.3998C314.231 74.6041 317.41 74.321 319.61 73.8367C316.4 78.5222 309.82 82.972 306.152 85.2257C305.332 85.7292 304.888 86.6748 305.024 87.6306C305.16 88.5928 305.825 89.35 306.759 89.6076C313.72 91.5269 319.691 90.7197 323.821 89.491V99.1785C323.821 99.8178 324.34 100.337 324.98 100.337H333.645C334.284 100.337 334.803 99.8178 334.803 99.1785V89.5012C337.166 90.1969 340.106 90.7556 343.487 90.7556C346.052 90.7556 348.87 90.434 351.865 89.6088C352.799 89.3513 353.463 88.5941 353.6 87.6306C353.735 86.6735 353.291 85.7292 352.471 85.2257L352.463 85.2244Z" fill="var(--fill-0, #74B08F)"/>
<path id="Vector_3" d="M65.4625 145.224C61.7943 142.972 55.2164 138.523 52.0055 133.835C54.2042 134.32 57.3804 134.605 60.4861 133.398C61.3394 133.068 61.9211 132.291 62.0031 131.374C62.0851 130.448 61.6469 129.574 60.8577 129.091C58.2644 127.509 53.6045 124.378 51.1971 121.02C53.0203 121.202 54.6398 121.122 56.0107 120.785C56.9268 120.56 57.6149 119.845 57.8045 118.919C57.9941 117.995 57.643 117.07 56.8909 116.505C54.7244 114.877 50.8857 111.789 49.1958 109.169C50.2861 109.11 51.2009 108.875 51.9146 108.473C52.5206 108.131 52.9421 107.539 53.0728 106.85C53.2061 106.144 53.0241 105.42 52.5706 104.862C51.2073 103.192 46.5948 97.421 44.441 93.2966C44.0234 92.4958 43.2059 92 42.3065 92C41.407 92 40.5909 92.4984 40.1732 93.2979C38.0207 97.4223 33.4082 103.193 32.0462 104.864C31.5914 105.42 31.4082 106.144 31.5414 106.851C31.6721 107.542 32.0936 108.134 32.7022 108.476C33.4287 108.886 34.3666 109.12 35.439 109.142C33.758 111.768 29.8988 114.873 27.7258 116.506C26.9725 117.07 26.6214 117.995 26.811 118.919C26.9994 119.845 27.6861 120.56 28.6035 120.786C29.977 121.122 31.5952 121.201 33.4184 121.022C31.0135 124.376 26.3498 127.509 23.7578 129.092C22.9686 129.574 22.5291 130.448 22.6124 131.374C22.6931 132.293 23.2748 133.068 24.1281 133.4C27.2313 134.604 30.4101 134.321 32.61 133.837C29.4004 138.522 22.8199 142.972 19.1517 145.226C18.3317 145.729 17.8884 146.675 18.0242 147.631C18.16 148.593 18.825 149.35 19.759 149.608C26.7201 151.527 32.6907 150.72 36.8214 149.491V159.178C36.8214 159.818 37.3404 160.337 37.9797 160.337H46.6448C47.2841 160.337 47.803 159.818 47.803 159.178V149.501C50.1657 150.197 53.1061 150.756 56.4874 150.756C59.0524 150.756 61.8699 150.434 64.8654 149.609C65.7995 149.351 66.4632 148.594 66.6003 147.631C66.7348 146.673 66.2915 145.729 65.4715 145.226L65.4625 145.224Z" fill="var(--fill-0, #74B08F)"/>
<path id="Vector_4" d="M173.463 194.224C169.794 191.972 163.216 187.523 160.006 182.835C162.204 183.32 165.38 183.605 168.486 182.398C169.339 182.068 169.921 181.291 170.003 180.374C170.085 179.448 169.647 178.574 168.858 178.091C166.264 176.509 161.605 173.378 159.197 170.02C161.02 170.202 162.64 170.122 164.011 169.785C164.927 169.56 165.615 168.845 165.804 167.919C165.994 166.995 165.643 166.07 164.891 165.505C162.724 163.877 158.886 160.789 157.196 158.169C158.286 158.11 159.201 157.875 159.915 157.473C160.521 157.131 160.942 156.539 161.073 155.85C161.206 155.144 161.024 154.42 160.571 153.862C159.207 152.192 154.595 146.421 152.441 142.297C152.023 141.496 151.206 141 150.306 141C149.407 141 148.591 141.498 148.173 142.298C146.021 146.422 141.408 152.193 140.046 153.864C139.591 154.42 139.408 155.144 139.541 155.851C139.672 156.542 140.094 157.134 140.702 157.476C141.429 157.886 142.367 158.12 143.439 158.142C141.758 160.768 137.899 163.873 135.726 165.506C134.972 166.07 134.621 166.995 134.811 167.919C134.999 168.845 135.686 169.56 136.604 169.786C137.977 170.122 139.595 170.201 141.418 170.022C139.014 173.376 134.35 176.509 131.758 178.092C130.969 178.574 130.529 179.448 130.612 180.374C130.693 181.293 131.275 182.068 132.128 182.4C135.231 183.604 138.41 183.321 140.61 182.837C137.4 187.522 130.82 191.972 127.152 194.226C126.332 194.729 125.888 195.675 126.024 196.631C126.16 197.593 126.825 198.35 127.759 198.608C134.72 200.527 140.691 199.72 144.821 198.491V208.178C144.821 208.818 145.34 209.337 145.98 209.337H154.645C155.284 209.337 155.803 208.818 155.803 208.178V198.501C158.166 199.197 161.106 199.756 164.487 199.756C167.052 199.756 169.87 199.434 172.865 198.609C173.799 198.351 174.463 197.594 174.6 196.631C174.735 195.673 174.291 194.729 173.471 194.226L173.463 194.224Z" fill="var(--fill-0, #74B08F)"/>
<path id="Vector_5" d="M106.463 442.224C102.794 439.972 96.2164 435.523 93.0055 430.835C95.2042 431.32 98.3804 431.605 101.486 430.398C102.339 430.068 102.921 429.291 103.003 428.374C103.085 427.448 102.647 426.574 101.858 426.091C99.2644 424.509 94.6045 421.378 92.1971 418.02C94.0203 418.202 95.6398 418.122 97.0107 417.785C97.9268 417.56 98.6149 416.845 98.8045 415.919C98.9941 414.995 98.643 414.07 97.8909 413.505C95.7244 411.877 91.8857 408.789 90.1958 406.169C91.2861 406.11 92.2009 405.875 92.9146 405.473C93.5206 405.131 93.9421 404.539 94.0728 403.85C94.2061 403.144 94.0241 402.42 93.5706 401.862C92.2073 400.192 87.5948 394.421 85.441 390.297C85.0234 389.496 84.2059 389 83.3065 389C82.407 389 81.5909 389.498 81.1732 390.298C79.0207 394.422 74.4082 400.193 73.0462 401.864C72.5914 402.42 72.4082 403.144 72.5414 403.851C72.6721 404.542 73.0936 405.134 73.7022 405.476C74.4287 405.886 75.3666 406.12 76.439 406.142C74.758 408.768 70.8988 411.873 68.7258 413.506C67.9725 414.07 67.6214 414.995 67.811 415.919C67.9994 416.845 68.6861 417.56 69.6035 417.786C70.977 418.122 72.5952 418.201 74.4184 418.022C72.0135 421.376 67.3498 424.509 64.7578 426.092C63.9686 426.574 63.5291 427.448 63.6124 428.374C63.6931 429.293 64.2748 430.068 65.1281 430.4C68.2313 431.604 71.4101 431.321 73.61 430.837C70.4004 435.522 63.8199 439.972 60.1517 442.226C59.3317 442.729 58.8884 443.675 59.0242 444.631C59.16 445.593 59.825 446.35 60.759 446.608C67.7201 448.527 73.6907 447.72 77.8214 446.491V456.178C77.8214 456.818 78.3404 457.337 78.9797 457.337H87.6448C88.2841 457.337 88.803 456.818 88.803 456.178V446.501C91.1657 447.197 94.1061 447.756 97.4874 447.756C100.052 447.756 102.87 447.434 105.865 446.609C106.799 446.351 107.463 445.594 107.6 444.631C107.735 443.673 107.291 442.729 106.471 442.226L106.463 442.224Z" fill="var(--fill-0, #74B08F)"/>
<path id="Vector_6" d="M226.463 509.224C222.794 506.972 216.216 502.523 213.006 497.835C215.204 498.32 218.38 498.605 221.486 497.398C222.339 497.068 222.921 496.291 223.003 495.374C223.085 494.448 222.647 493.574 221.858 493.091C219.264 491.509 214.605 488.378 212.197 485.02C214.02 485.202 215.64 485.122 217.011 484.785C217.927 484.56 218.615 483.845 218.804 482.919C218.994 481.995 218.643 481.07 217.891 480.505C215.724 478.877 211.886 475.789 210.196 473.169C211.286 473.11 212.201 472.875 212.915 472.473C213.521 472.131 213.942 471.539 214.073 470.85C214.206 470.144 214.024 469.42 213.571 468.862C212.207 467.192 207.595 461.421 205.441 457.297C205.023 456.496 204.206 456 203.306 456C202.407 456 201.591 456.498 201.173 457.298C199.021 461.422 194.408 467.193 193.046 468.864C192.591 469.42 192.408 470.144 192.541 470.851C192.672 471.542 193.094 472.134 193.702 472.476C194.429 472.886 195.367 473.12 196.439 473.142C194.758 475.768 190.899 478.873 188.726 480.506C187.972 481.07 187.621 481.995 187.811 482.919C187.999 483.845 188.686 484.56 189.604 484.786C190.977 485.122 192.595 485.201 194.418 485.022C192.014 488.376 187.35 491.509 184.758 493.092C183.969 493.574 183.529 494.448 183.612 495.374C183.693 496.293 184.275 497.068 185.128 497.4C188.231 498.604 191.41 498.321 193.61 497.837C190.4 502.522 183.82 506.972 180.152 509.226C179.332 509.729 178.888 510.675 179.024 511.631C179.16 512.593 179.825 513.35 180.759 513.608C187.72 515.527 193.691 514.72 197.821 513.491V523.178C197.821 523.818 198.34 524.337 198.98 524.337H207.645C208.284 524.337 208.803 523.818 208.803 523.178V513.501C211.166 514.197 214.106 514.756 217.487 514.756C220.052 514.756 222.87 514.434 225.865 513.609C226.799 513.351 227.463 512.594 227.6 511.631C227.735 510.673 227.291 509.729 226.471 509.226L226.463 509.224Z" fill="var(--fill-0, #74B08F)"/>
<path id="Vector_7" d="M173.463 347.224C169.794 344.972 163.216 340.523 160.006 335.835C162.204 336.32 165.38 336.605 168.486 335.398C169.339 335.068 169.921 334.291 170.003 333.374C170.085 332.448 169.647 331.574 168.858 331.091C166.264 329.509 161.605 326.378 159.197 323.02C161.02 323.202 162.64 323.122 164.011 322.785C164.927 322.56 165.615 321.845 165.804 320.919C165.994 319.995 165.643 319.07 164.891 318.505C162.724 316.877 158.886 313.789 157.196 311.169C158.286 311.11 159.201 310.875 159.915 310.473C160.521 310.131 160.942 309.539 161.073 308.85C161.206 308.144 161.024 307.42 160.571 306.862C159.207 305.192 154.595 299.421 152.441 295.297C152.023 294.496 151.206 294 150.306 294C149.407 294 148.591 294.498 148.173 295.298C146.021 299.422 141.408 305.193 140.046 306.864C139.591 307.42 139.408 308.144 139.541 308.851C139.672 309.542 140.094 310.134 140.702 310.476C141.429 310.886 142.367 311.12 143.439 311.142C141.758 313.768 137.899 316.873 135.726 318.506C134.972 319.07 134.621 319.995 134.811 320.919C134.999 321.845 135.686 322.56 136.604 322.786C137.977 323.122 139.595 323.201 141.418 323.022C139.014 326.376 134.35 329.509 131.758 331.092C130.969 331.574 130.529 332.448 130.612 333.374C130.693 334.293 131.275 335.068 132.128 335.4C135.231 336.604 138.41 336.321 140.61 335.837C137.4 340.522 130.82 344.972 127.152 347.226C126.332 347.729 125.888 348.675 126.024 349.631C126.16 350.593 126.825 351.35 127.759 351.608C134.72 353.527 140.691 352.72 144.821 351.491V361.178C144.821 361.818 145.34 362.337 145.98 362.337H154.645C155.284 362.337 155.803 361.818 155.803 361.178V351.501C158.166 352.197 161.106 352.756 164.487 352.756C167.052 352.756 169.87 352.434 172.865 351.609C173.799 351.351 174.463 350.594 174.6 349.631C174.735 348.673 174.291 347.729 173.471 347.226L173.463 347.224Z" fill="var(--fill-0, #74B08F)"/>
<path id="Vector_8" d="M364.463 425.224C360.794 422.972 354.216 418.523 351.006 413.835C353.204 414.32 356.38 414.605 359.486 413.398C360.339 413.068 360.921 412.291 361.003 411.374C361.085 410.448 360.647 409.574 359.858 409.091C357.264 407.509 352.605 404.378 350.197 401.02C352.02 401.202 353.64 401.122 355.011 400.785C355.927 400.56 356.615 399.845 356.804 398.919C356.994 397.995 356.643 397.07 355.891 396.505C353.724 394.877 349.886 391.789 348.196 389.169C349.286 389.11 350.201 388.875 350.915 388.473C351.521 388.131 351.942 387.539 352.073 386.85C352.206 386.144 352.024 385.42 351.571 384.862C350.207 383.192 345.595 377.421 343.441 373.297C343.023 372.496 342.206 372 341.306 372C340.407 372 339.591 372.498 339.173 373.298C337.021 377.422 332.408 383.193 331.046 384.864C330.591 385.42 330.408 386.144 330.541 386.851C330.672 387.542 331.094 388.134 331.702 388.476C332.429 388.886 333.367 389.12 334.439 389.142C332.758 391.768 328.899 394.873 326.726 396.506C325.972 397.07 325.621 397.995 325.811 398.919C325.999 399.845 326.686 400.56 327.604 400.786C328.977 401.122 330.595 401.201 332.418 401.022C330.014 404.376 325.35 407.509 322.758 409.092C321.969 409.574 321.529 410.448 321.612 411.374C321.693 412.293 322.275 413.068 323.128 413.4C326.231 414.604 329.41 414.321 331.61 413.837C328.4 418.522 321.82 422.972 318.152 425.226C317.332 425.729 316.888 426.675 317.024 427.631C317.16 428.593 317.825 429.35 318.759 429.608C325.72 431.527 331.691 430.72 335.821 429.491V439.178C335.821 439.818 336.34 440.337 336.98 440.337H345.645C346.284 440.337 346.803 439.818 346.803 439.178V429.501C349.166 430.197 352.106 430.756 355.487 430.756C358.052 430.756 360.87 430.434 363.865 429.609C364.799 429.351 365.463 428.594 365.6 427.631C365.735 426.673 365.291 425.729 364.471 425.226L364.463 425.224Z" fill="var(--fill-0, #74B08F)"/>
<path id="Vector_9" d="M450.463 321.224C446.794 318.972 440.216 314.523 437.006 309.835C439.204 310.32 442.38 310.605 445.486 309.398C446.339 309.068 446.921 308.291 447.003 307.374C447.085 306.448 446.647 305.574 445.858 305.091C443.264 303.509 438.605 300.378 436.197 297.02C438.02 297.202 439.64 297.122 441.011 296.785C441.927 296.56 442.615 295.845 442.804 294.919C442.994 293.995 442.643 293.07 441.891 292.505C439.724 290.877 435.886 287.789 434.196 285.169C435.286 285.11 436.201 284.875 436.915 284.473C437.521 284.131 437.942 283.539 438.073 282.85C438.206 282.144 438.024 281.42 437.571 280.862C436.207 279.192 431.595 273.421 429.441 269.297C429.023 268.496 428.206 268 427.306 268C426.407 268 425.591 268.498 425.173 269.298C423.021 273.422 418.408 279.193 417.046 280.864C416.591 281.42 416.408 282.144 416.541 282.851C416.672 283.542 417.094 284.134 417.702 284.476C418.429 284.886 419.367 285.12 420.439 285.142C418.758 287.768 414.899 290.873 412.726 292.506C411.972 293.07 411.621 293.995 411.811 294.919C411.999 295.845 412.686 296.56 413.604 296.786C414.977 297.122 416.595 297.201 418.418 297.022C416.014 300.376 411.35 303.509 408.758 305.092C407.969 305.574 407.529 306.448 407.612 307.374C407.693 308.293 408.275 309.068 409.128 309.4C412.231 310.604 415.41 310.321 417.61 309.837C414.4 314.522 407.82 318.972 404.152 321.226C403.332 321.729 402.888 322.675 403.024 323.631C403.16 324.593 403.825 325.35 404.759 325.608C411.72 327.527 417.691 326.72 421.821 325.491V335.178C421.821 335.818 422.34 336.337 422.98 336.337H431.645C432.284 336.337 432.803 335.818 432.803 335.178V325.501C435.166 326.197 438.106 326.756 441.487 326.756C444.052 326.756 446.87 326.434 449.865 325.609C450.799 325.351 451.463 324.594 451.6 323.631C451.735 322.673 451.291 321.729 450.471 321.226L450.463 321.224Z" fill="var(--fill-0, #74B08F)"/>
<path id="Vector_10" d="M360.463 240.224C356.794 237.972 350.216 233.523 347.006 228.835C349.204 229.32 352.38 229.605 355.486 228.398C356.339 228.068 356.921 227.291 357.003 226.374C357.085 225.448 356.647 224.574 355.858 224.091C353.264 222.509 348.605 219.378 346.197 216.02C348.02 216.202 349.64 216.122 351.011 215.785C351.927 215.56 352.615 214.845 352.804 213.919C352.994 212.995 352.643 212.07 351.891 211.505C349.724 209.877 345.886 206.789 344.196 204.169C345.286 204.11 346.201 203.875 346.915 203.473C347.521 203.131 347.942 202.539 348.073 201.85C348.206 201.144 348.024 200.42 347.571 199.862C346.207 198.192 341.595 192.421 339.441 188.297C339.023 187.496 338.206 187 337.306 187C336.407 187 335.591 187.498 335.173 188.298C333.021 192.422 328.408 198.193 327.046 199.864C326.591 200.42 326.408 201.144 326.541 201.851C326.672 202.542 327.094 203.134 327.702 203.476C328.429 203.886 329.367 204.12 330.439 204.142C328.758 206.768 324.899 209.873 322.726 211.506C321.972 212.07 321.621 212.995 321.811 213.919C321.999 214.845 322.686 215.56 323.604 215.786C324.977 216.122 326.595 216.201 328.418 216.022C326.014 219.376 321.35 222.509 318.758 224.092C317.969 224.574 317.529 225.448 317.612 226.374C317.693 227.293 318.275 228.068 319.128 228.4C322.231 229.604 325.41 229.321 327.61 228.837C324.4 233.522 317.82 237.972 314.152 240.226C313.332 240.729 312.888 241.675 313.024 242.631C313.16 243.593 313.825 244.35 314.759 244.608C321.72 246.527 327.691 245.72 331.821 244.491V254.178C331.821 254.818 332.34 255.337 332.98 255.337H341.645C342.284 255.337 342.803 254.818 342.803 254.178V244.501C345.166 245.197 348.106 245.756 351.487 245.756C354.052 245.756 356.87 245.434 359.865 244.609C360.799 244.351 361.463 243.594 361.6 242.631C361.735 241.673 361.291 240.729 360.471 240.226L360.463 240.224Z" fill="var(--fill-0, #74B08F)"/>
<path id="Vector_11" d="M477.463 141.224C473.794 138.972 467.216 134.523 464.006 129.835C466.204 130.32 469.38 130.605 472.486 129.398C473.339 129.068 473.921 128.291 474.003 127.374C474.085 126.448 473.647 125.574 472.858 125.091C470.264 123.509 465.605 120.378 463.197 117.02C465.02 117.202 466.64 117.122 468.011 116.785C468.927 116.56 469.615 115.845 469.804 114.919C469.994 113.995 469.643 113.07 468.891 112.505C466.724 110.877 462.886 107.789 461.196 105.169C462.286 105.11 463.201 104.875 463.915 104.473C464.521 104.131 464.942 103.539 465.073 102.85C465.206 102.144 465.024 101.42 464.571 100.862C463.207 99.1917 458.595 93.421 456.441 89.2966C456.023 88.4958 455.206 88 454.306 88C453.407 88 452.591 88.4984 452.173 89.2979C450.021 93.4223 445.408 99.193 444.046 100.864C443.591 101.42 443.408 102.144 443.541 102.851C443.672 103.542 444.094 104.134 444.702 104.476C445.429 104.886 446.367 105.12 447.439 105.142C445.758 107.768 441.899 110.873 439.726 112.506C438.972 113.07 438.621 113.995 438.811 114.919C438.999 115.845 439.686 116.56 440.604 116.786C441.977 117.122 443.595 117.201 445.418 117.022C443.014 120.376 438.35 123.509 435.758 125.092C434.969 125.574 434.529 126.448 434.612 127.374C434.693 128.293 435.275 129.068 436.128 129.4C439.231 130.604 442.41 130.321 444.61 129.837C441.4 134.522 434.82 138.972 431.152 141.226C430.332 141.729 429.888 142.675 430.024 143.631C430.16 144.593 430.825 145.35 431.759 145.608C438.72 147.527 444.691 146.72 448.821 145.491V155.178C448.821 155.818 449.34 156.337 449.98 156.337H458.645C459.284 156.337 459.803 155.818 459.803 155.178V145.501C462.166 146.197 465.106 146.756 468.487 146.756C471.052 146.756 473.87 146.434 476.865 145.609C477.799 145.351 478.463 144.594 478.6 143.631C478.735 142.673 478.291 141.729 477.471 141.226L477.463 141.224Z" fill="var(--fill-0, #74B08F)"/>
</g>
</g>
</svg>
