<svg preserveAspectRatio="none" width="100%" height="100%" overflow="visible" style="display: block;" viewBox="0 0 38 55" fill="none" xmlns="http://www.w3.org/2000/svg">
<g id="Union">
<mask id="path-1-outside-1_0_27" maskUnits="userSpaceOnUse" x="0" y="-1.23978e-05" width="38" height="55" fill="black">
<rect fill="white" y="-1.23978e-05" width="38" height="55"/>
<path d="M19 20C27.8366 20 35 27.1634 35 36C35 44.8365 27.8366 52 19 52C10.1634 52 3 44.8365 3 36C3 27.1634 10.1634 20 19 20ZM25.8564 18C20.4983 17.0454 17.4616 17.0458 12 18L18.9277 5.99999L25.8564 18Z"/>
</mask>
<path d="M19 20C27.8366 20 35 27.1634 35 36C35 44.8365 27.8366 52 19 52C10.1634 52 3 44.8365 3 36C3 27.1634 10.1634 20 19 20ZM25.8564 18C20.4983 17.0454 17.4616 17.0458 12 18L18.9277 5.99999L25.8564 18Z" fill="var(--fill-0, #5996DC)"/>
<path d="M25.8564 18L25.3303 20.9535L31.679 22.0846L28.4545 16.4999L25.8564 18ZM12 18L9.40188 16.5001L6.19196 22.0602L12.5163 20.9552L12 18ZM18.9277 5.99999L21.5258 4.49991L18.9276 0L16.3296 4.50006L18.9277 5.99999ZM19 20V23C26.1797 23 32 28.8203 32 36H35H38C38 25.5066 29.4934 17 19 17V20ZM35 36H32C32 43.1797 26.1797 49 19 49V52V55C29.4934 55 38 46.4934 38 36H35ZM19 52V49C11.8203 49 6 43.1797 6 36H3H0C0 46.4934 8.50659 55 19 55V52ZM3 36H6C6 28.8203 11.8203 23 19 23V20V17C8.50659 17 0 25.5066 0 36H3ZM25.8564 18L26.3826 15.0465C20.673 14.0293 17.2834 14.0315 11.4837 15.0448L12 18L12.5163 20.9552C17.6397 20.0601 20.3236 20.0615 25.3303 20.9535L25.8564 18ZM12 18L14.5981 19.4999L21.5259 7.49991L18.9277 5.99999L16.3296 4.50006L9.40188 16.5001L12 18ZM18.9277 5.99999L16.3297 7.50007L23.2584 19.5001L25.8564 18L28.4545 16.4999L21.5258 4.49991L18.9277 5.99999Z" fill="var(--stroke-0, white)" mask="url(#path-1-outside-1_0_27)"/>
</g>
</svg>
