<svg width="64" height="64" viewBox="0 0 64 64" fill="none" xmlns="http://www.w3.org/2000/svg">
<g clip-path="url(#clip0_38_644)">
<path d="M18.9277 27.6689L4.95117 54.0013L17.6431 52.8287L23.786 63.998L37.7625 37.6656L18.9277 27.6689Z" fill="#E95454"/>
<path d="M20.5269 56.3303C20.9191 55.4879 20.5089 54.4815 19.6886 54.0452L18.8842 53.617C18.0798 53.1588 17.7737 52.1404 18.2119 51.316C18.6561 50.4776 19.7006 50.1574 20.539 50.6016L22.812 51.8082C23.5143 52.1804 24.3948 51.9102 24.7569 51.2039L24.813 51.0959C25.2292 50.4295 24.983 49.5491 24.2907 49.183L17.4915 45.5753C16.6631 45.1351 16.2569 44.1326 16.6431 43.2882C17.0693 42.3898 18.1458 42.0356 19.0122 42.4958L25.3192 45.8434C26.0215 46.2156 26.9019 45.9454 27.2741 45.2431L27.3101 45.1511L27.3201 45.1311C27.7223 44.3947 27.4402 43.4703 26.6978 43.0761L23.1602 41.1992C22.3318 40.759 21.9256 39.7565 22.3178 38.9021C22.74 38.0137 23.8205 37.6496 24.6869 38.1098L28.5947 40.1847C29.3251 40.5729 30.1975 40.2488 30.5757 39.5124C30.5817 39.5024 30.5817 39.5024 30.5857 39.4924C30.5917 39.4824 30.5917 39.4824 30.5957 39.4724C30.9939 38.7461 30.7738 37.8416 30.0414 37.4555L25.8254 35.2184C25.0071 34.7842 24.6009 33.7817 24.987 32.9374C25.4132 32.0389 26.4897 31.6848 27.3562 32.145L37.757 37.6656L23.7805 63.9979L19.9287 56.9966C20.1768 56.8286 20.3929 56.6205 20.5269 56.3303Z" fill="#ED6362"/>
<path d="M45.0712 27.6689L59.0477 54.0013L46.3558 52.8287L40.2129 63.998L26.2363 37.6656L45.0712 27.6689Z" fill="#ED6362"/>
<path d="M43.4704 56.3308C43.0782 55.4884 43.4884 54.4819 44.3088 54.0457L45.1131 53.6175C45.9175 53.1593 46.2236 52.1408 45.7854 51.3164C45.3412 50.478 44.2967 50.1579 43.4584 50.6021L41.1853 51.8086C40.483 52.1808 39.6025 51.9107 39.2404 51.2044L39.1844 51.0963C38.7682 50.43 39.0143 49.5496 39.7066 49.1834L46.5078 45.5737C47.3362 45.1335 47.7424 44.131 47.3562 43.2866C46.93 42.3882 45.8535 42.0341 44.9871 42.4943L38.6801 45.8418C37.9778 46.214 37.0974 45.9439 36.7252 45.2416L36.6892 45.1495L36.6792 45.1295C36.277 44.3932 36.5591 43.4687 37.3015 43.0745L40.8391 41.1977C41.6675 40.7575 42.0737 39.755 41.6815 38.9006C41.2593 38.0122 40.1788 37.648 39.3124 38.1082L35.4006 40.1872C34.6702 40.5754 33.7978 40.2512 33.4196 39.5149C33.4136 39.5049 33.4136 39.5049 33.4096 39.4949C33.4036 39.4849 33.4036 39.4849 33.3996 39.4749C33.0015 38.7485 33.2216 37.8441 33.9539 37.4579L38.1699 35.2209C38.9883 34.7867 39.3945 33.7842 39.0083 32.9398C38.5821 32.0414 37.5056 31.6872 36.6392 32.1474L26.2383 37.668L40.2148 64.0004L44.0666 56.9991C43.8205 56.829 43.6044 56.6209 43.4704 56.3308Z" fill="#E95454"/>
<path d="M31.9994 46.7059C44.8969 46.7059 55.3524 36.2504 55.3524 23.3529C55.3524 10.4555 44.8969 0 31.9994 0C19.102 0 8.64648 10.4555 8.64648 23.3529C8.64648 36.2504 19.102 46.7059 31.9994 46.7059Z" fill="#FFCC5B"/>
<path d="M35.1672 20.6738H20.3683C19.2178 20.6738 18.2733 19.7294 18.2733 18.5788L18.2893 18.4347V18.4027C18.2733 17.1882 19.2638 16.1957 20.4804 16.1957H30.7372C32.0958 16.1957 33.2964 15.1892 33.3764 13.8286C33.4404 12.4059 32.3059 11.2054 30.8812 11.2054H20.0161C18.8176 11.2054 17.9212 10.1989 17.9372 8.99833C17.9372 8.98232 17.9372 8.98232 17.9372 8.96631C17.9372 8.9503 17.9372 8.9503 17.9372 8.9343C17.9212 7.73573 18.8156 6.72726 20.0161 6.72726H31.3855C32.7281 6.72726 33.9287 5.72079 34.0087 4.37616C34.0727 2.93749 32.9382 1.75293 31.5135 1.75293H23.1876C14.6976 5.25257 8.71484 13.6005 8.71484 23.3531C8.71484 33.1056 14.6976 41.4515 23.1896 44.9472H33.7606C35.1032 44.9472 36.3038 43.9407 36.3838 42.5961C36.4478 41.1574 35.3133 39.9748 33.8886 39.9748L21.863 39.9728C20.4443 39.9728 19.3018 38.7863 19.3778 37.3496C19.4479 36.005 20.6564 34.9945 22.0031 34.9945H26.6653C28.0059 34.9565 29.0884 33.858 29.0884 32.5073C29.0884 31.1327 27.9699 30.0122 26.5932 30.0122H19.5259C18.3754 30.0122 17.4309 29.0697 17.4469 27.9172V27.7411C17.3669 26.6066 18.2793 25.6461 19.4139 25.6461H35.0232C36.3818 25.6461 37.5824 24.6397 37.6624 23.295C37.7264 21.8584 36.5899 20.6738 35.1672 20.6738Z" fill="#FDBC4B"/>
<path d="M31.9999 40.0207C22.8076 40.0207 15.3301 32.5412 15.3301 23.3509C15.3301 14.1606 22.8076 6.68311 31.9999 6.68311C41.1922 6.68311 48.6697 14.1626 48.6697 23.3529C48.6697 32.5432 41.1922 40.0207 31.9999 40.0207Z" fill="#FFDB70"/>
<path opacity="0.2" d="M48.6692 23.3532C48.6692 14.4851 41.702 7.23168 32.9559 6.73145H31.4031C30.3787 6.73145 29.4642 7.49981 29.4022 8.52429C29.3542 9.6208 30.2186 10.5252 31.3051 10.5252L40.4774 10.5272C41.5599 10.5272 42.4303 11.4316 42.3723 12.5282C42.3182 13.5546 41.3978 14.325 40.3693 14.325H36.8137C35.7912 14.355 34.9648 15.1914 34.9648 16.2219C34.9648 17.2704 35.8192 18.1248 36.8677 18.1248H42.2582C43.1366 18.1248 43.855 18.8451 43.843 19.7215V19.8536C43.903 20.72 43.2087 21.4503 42.3423 21.4503H30.4387C29.4022 21.4503 28.4878 22.2187 28.4257 23.2432C28.3777 24.3397 29.2421 25.2441 30.3286 25.2441H41.6139C42.4923 25.2441 43.2107 25.9645 43.2107 26.8409L43.1987 26.9509V26.9749C43.2107 27.9014 42.4543 28.6577 41.5279 28.6577H33.7042C32.6677 28.6577 31.7533 29.4261 31.6913 30.4626C31.6432 31.5471 32.5076 32.4635 33.5942 32.4635H41.88C42.7945 32.4635 43.4768 33.2319 43.4648 34.1463C43.4648 34.1583 43.4648 34.1583 43.4648 34.1703C43.4648 34.1823 43.4648 34.1823 43.4648 34.1943C43.4768 35.1087 42.7945 35.8771 41.88 35.8771H33.21C32.1855 35.8771 31.2711 36.6455 31.209 37.6699C31.161 38.7685 32.0254 39.6709 33.1119 39.6709H35.399C42.9686 38.0941 48.6692 31.377 48.6692 23.3532Z" fill="white"/>
<path d="M43.6366 19.6615H35.5288L33.0216 11.9499C32.6995 10.9594 31.2968 10.9594 30.9747 11.9499L28.4695 19.6615H20.3617C19.3192 19.6615 18.885 20.9961 19.7294 21.6084L26.2885 26.3746L23.7833 34.0863C23.4611 35.0767 24.5957 35.9011 25.4401 35.2888L31.9991 30.5226L38.5582 35.2888C39.4026 35.9011 40.5371 35.0767 40.215 34.0863L37.7098 26.3746L44.2689 21.6084C45.1113 20.9961 44.6791 19.6615 43.6366 19.6615Z" fill="#EC9922"/>
</g>
<defs>
<clipPath id="clip0_38_644">
<rect width="64" height="64" fill="white"/>
</clipPath>
</defs>
</svg>
