<svg width="512" height="512" viewBox="0 0 512 512" fill="none" xmlns="http://www.w3.org/2000/svg">
<rect width="512" height="512" fill="#FFCA4F"/>
<path d="M122.519 123.201C122.519 120.544 120.366 118.391 117.709 118.391H82.8373C80.1808 118.391 78.0273 120.544 78.0273 123.201V313.192C78.0273 355.363 112.214 389.55 154.385 389.55H165.207C167.863 389.55 170.017 387.396 170.017 384.74V349.868C170.017 347.211 167.863 345.058 165.207 345.058H154.385C136.786 345.058 122.519 330.791 122.519 313.192V233.227H165.207C167.863 233.227 170.017 231.074 170.017 228.417V193.546C170.017 190.889 167.863 188.736 165.207 188.736H122.519V123.201Z" fill="#1E1E1E"/>
<path d="M191.06 345.058C188.404 345.058 186.25 347.211 186.25 349.868V384.74C186.25 387.396 188.404 389.55 191.06 389.55H357.303C398.644 389.55 432.157 356.036 432.157 314.695C432.157 273.354 398.644 239.841 357.303 239.841H258.399C241.796 239.841 228.337 226.382 228.337 209.779C228.337 193.176 241.796 179.717 258.399 179.717H349.787V191.224C349.787 194.787 353.527 197.113 356.724 195.538L425.207 161.786C428.785 160.022 428.785 154.92 425.207 153.157L356.724 119.404C353.527 117.829 349.787 120.155 349.787 123.719V135.225H258.399C217.224 135.225 183.845 168.604 183.845 209.779C183.845 250.954 217.224 284.333 258.399 284.333H357.303C374.072 284.333 387.666 297.926 387.666 314.695C387.666 331.464 374.072 345.058 357.303 345.058H191.06Z" fill="#1E1E1E"/>
</svg>
