<svg preserveAspectRatio="none" width="100%" height="100%" overflow="visible" style="display: block;" viewBox="0 0 1222 173.885" fill="none" xmlns="http://www.w3.org/2000/svg">
<g id="Group 8">
<path id="Vector 20 (Stroke)" fill-rule="evenodd" clip-rule="evenodd" d="M1134.66 0.76023L1160.3 0.842233L1160.03 84.4047C1160.03 84.4112 1160.03 84.4177 1160.03 84.4242C1160.04 97.9093 1164.42 114.16 1174.27 126.753C1183.77 138.892 1198.77 148.242 1222 148.242V173.884C1190.74 173.884 1168.35 160.798 1154.07 142.554C1140.16 124.77 1134.39 102.701 1134.39 84.4047V84.3842L1134.66 0.76023Z" fill="var(--fill-0, white)"/>
<path id="Vector 21 (Stroke)" fill-rule="evenodd" clip-rule="evenodd" d="M366.199 86.9422C366.199 38.9254 405.125 0 453.142 0H536.879V25.642H453.142C419.287 25.642 391.841 53.087 391.841 86.9422C391.841 120.797 419.287 148.243 453.142 148.243H536.879V173.884H453.142C405.125 173.884 366.199 134.959 366.199 86.9422Z" fill="var(--fill-0, white)"/>
<path id="Vector 22 (Stroke)" fill-rule="evenodd" clip-rule="evenodd" d="M768.457 86.9422C768.457 38.9254 807.383 0 855.399 0H939.136V25.642H855.399C821.544 25.642 794.099 53.087 794.099 86.9422C794.099 120.797 821.544 148.243 855.399 148.243H939.136V173.884H855.399C807.383 173.884 768.457 134.959 768.457 86.9422Z" fill="var(--fill-0, white)"/>
<path id="Vector 23 (Stroke)" fill-rule="evenodd" clip-rule="evenodd" d="M182.699 86.5417C182.699 39.1887 221.086 0.801423 268.439 0.801423C315.792 0.801423 354.18 39.1887 354.18 86.5417V173.885H328.538V112.985H208.341V173.885H182.699V86.5417ZM208.341 87.343H328.538V86.5417C328.538 53.3503 301.631 26.4434 268.439 26.4434C235.248 26.4434 208.341 53.3503 208.341 86.5417V87.343Z" fill="var(--fill-0, white)"/>
<path id="Vector 24 (Stroke)" fill-rule="evenodd" clip-rule="evenodd" d="M951.156 86.5417C951.156 39.1887 989.543 0.801423 1036.9 0.801423C1084.25 0.801423 1122.64 39.1887 1122.64 86.5417V173.885H1096.99V112.985H976.798V173.885H951.156V86.5417ZM976.798 87.343H1096.99V86.5417C1096.99 53.3503 1070.09 26.4434 1036.9 26.4434C1003.71 26.4434 976.798 53.3503 976.798 86.5417V87.343Z" fill="var(--fill-0, white)"/>
<path id="Vector 25 (Stroke)" fill-rule="evenodd" clip-rule="evenodd" d="M72.5186 25.642H0V0H170.679V25.642H98.1606V173.083H72.5186V25.642Z" fill="var(--fill-0, white)"/>
<path id="Vector 26 (Stroke)" fill-rule="evenodd" clip-rule="evenodd" d="M621.417 25.642H548.898V0H719.578V25.642H647.059V173.083H621.417V25.642Z" fill="var(--fill-0, white)"/>
<path id="Vector 27 (Stroke)" fill-rule="evenodd" clip-rule="evenodd" d="M731.597 173.083V0H757.239V173.083H731.597Z" fill="var(--fill-0, white)"/>
</g>
</svg>
