<svg width="16" height="16" viewBox="0 0 16 16" fill="none" xmlns="http://www.w3.org/2000/svg">
<g clip-path="url(#clip0_29_773)">
<path d="M10.2986 5.28717L11.7013 6.71317L8.17259 10.1845C7.85193 10.5058 7.42726 10.6672 7.00259 10.6672C6.57526 10.6672 6.14726 10.5045 5.82193 10.1792L3.97126 8.38584L5.36326 6.94984L6.99926 8.53517L10.2999 5.2885L10.2986 5.28717ZM15.7246 9.09384L13.0186 14.1365C12.6226 14.8745 11.8553 15.3332 11.0153 15.3332H4.99726C4.15926 15.3332 3.39259 14.8758 2.99593 14.1398L0.277262 9.09984C-0.0927382 8.41317 -0.0934049 7.59317 0.277262 6.90584L2.99593 1.8605C3.39259 1.1245 4.15993 0.666504 4.99726 0.666504H11.0153C11.8553 0.666504 12.6226 1.12517 13.0186 1.86317L15.7253 6.9065C16.0926 7.5905 16.0926 8.4085 15.7253 9.09317L15.7246 9.09384ZM13.9626 7.85317L11.2559 2.80917C11.2093 2.72117 11.1166 2.6665 11.0153 2.6665H4.99726C4.89593 2.6665 4.80326 2.72117 4.75593 2.80917L2.0366 7.8545C1.9866 7.94717 1.9866 8.05784 2.0366 8.1505L4.75526 13.1912C4.80259 13.2792 4.89459 13.3332 4.99659 13.3332H11.0153C11.1166 13.3332 11.2093 13.2785 11.2566 13.1905L13.9619 8.14784C14.0119 8.05517 14.0119 7.94584 13.9619 7.85384L13.9626 7.85317Z" fill="#76E176"/>
</g>
<defs>
<clipPath id="clip0_29_773">
<rect width="16" height="16" fill="white"/>
</clipPath>
</defs>
</svg>
