<svg width="32" height="32" viewBox="0 0 32 32" fill="none" xmlns="http://www.w3.org/2000/svg">
<path d="M25.3406 15.3864C25.0223 15.0682 24.6361 14.9092 24.1813 14.9092H23.6362V11.6363C23.6362 9.5454 22.8864 7.75011 21.3863 6.2501C19.8864 4.75003 18.0913 4 16.0001 4C13.909 4 12.1135 4.75003 10.6137 6.25004C9.11361 7.75011 8.36381 9.54534 8.36381 11.6363V14.9092H7.81844C7.36405 14.9092 6.9776 15.0682 6.65938 15.3864C6.34117 15.7044 6.18213 16.0908 6.18213 16.5456V26.3637C6.18213 26.8181 6.34123 27.2047 6.65938 27.5229C6.9776 27.8408 7.36405 28 7.81844 28H24.1817C24.6365 28 25.0226 27.841 25.341 27.5229C25.6589 27.2047 25.8182 26.8181 25.8182 26.3637V16.5454C25.8185 16.091 25.6589 15.7046 25.3406 15.3864ZM20.3636 14.9092H11.6365V11.6363C11.6365 10.4318 12.0628 9.40331 12.915 8.55119C13.7674 7.69894 14.7957 7.27291 16.0003 7.27291C17.205 7.27291 18.2331 7.69888 19.0855 8.55119C19.9375 9.40325 20.3636 10.4318 20.3636 11.6363V14.9092Z" fill="white" fill-opacity="0.3"/>
</svg>
