<svg width="16" height="16" viewBox="0 0 16 16" fill="none" xmlns="http://www.w3.org/2000/svg">
<path d="M15.7817 11.2001C15.0995 12.1099 14.2915 12.9172 13.3817 13.6001C12.9933 13.891 12.4603 13.891 12.0719 13.6001C11.1621 12.9179 10.3548 12.1099 9.67189 11.2001C9.31043 10.7179 9.40861 10.0335 9.89007 9.67207C10.3737 9.31207 11.0566 9.4088 11.4181 9.89025C11.4864 9.98116 11.5643 10.0641 11.6355 10.1528C11.6341 7.9528 11.4595 5.83789 11.3555 4.77534C10.7853 4.63862 9.78825 4.45607 8.29443 4.36152C7.69298 4.32298 7.23625 3.80443 7.2748 3.20371C7.31334 2.60298 7.82171 2.14407 8.43261 2.18407C11.3512 2.36952 12.6406 2.86916 12.7781 2.92589C13.1439 3.07571 13.3992 3.41243 13.4472 3.80443C13.4617 3.92952 13.8166 6.90407 13.8181 10.1543C13.8893 10.0655 13.9679 9.98262 14.0362 9.89098C14.3984 9.40952 15.0821 9.3128 15.5642 9.6728C16.0457 10.0343 16.1439 10.7186 15.7824 11.2008L15.7817 11.2001ZM7.70534 11.6386C6.21152 11.5441 5.21443 11.3608 4.64425 11.2248C4.54025 10.1623 4.36571 8.04734 4.36425 5.84734C4.43552 5.93607 4.51407 6.01825 4.58171 6.10989C4.94534 6.59425 5.63116 6.68662 6.10971 6.32807C6.59116 5.96662 6.68934 5.28225 6.32789 4.80007C5.64571 3.89025 4.83771 3.08298 3.92789 2.40007C3.54025 2.10916 3.00571 2.10916 2.61807 2.40007C1.70825 3.08225 0.900978 3.89025 0.218069 4.80007C-0.143385 5.28225 -0.0452032 5.96662 0.436251 6.32807C0.91916 6.6888 1.6028 6.59207 1.96425 6.10989C2.03261 6.01825 2.11116 5.93534 2.18243 5.84661C2.18461 9.09607 2.5388 12.0706 2.55334 12.1964C2.60061 12.5884 2.85661 12.9252 3.22243 13.075C3.28207 13.1157 4.82752 13.6677 7.63698 13.8183C8.20789 13.8183 8.68789 13.3746 8.72498 12.7964C8.76352 12.1957 8.3068 11.6772 7.70534 11.6386Z" fill="white"/>
</svg>
