<svg width="16" height="16" viewBox="0 0 16 16" fill="none" xmlns="http://www.w3.org/2000/svg">
<path d="M5.3335 5.33331V4.76731C5.33295 4.17662 5.52854 3.60246 5.88958 3.13494C6.25062 2.66743 6.75667 2.33302 7.32831 2.1842C7.89995 2.03538 8.50483 2.08057 9.04801 2.31268C9.59119 2.54478 10.0419 2.95067 10.3295 3.46665L12.0748 2.48998C11.5711 1.58779 10.7823 0.878275 9.83195 0.47269C8.88161 0.0671053 7.82354 -0.0116104 6.82365 0.248886C5.82376 0.509382 4.9386 1.09436 4.30696 1.91209C3.67533 2.72981 3.33294 3.73405 3.3335 4.76731V5.33331H1.3335V14C1.3335 14.5304 1.54421 15.0391 1.91928 15.4142C2.29436 15.7893 2.80306 16 3.3335 16H12.6668C13.1973 16 13.706 15.7893 14.081 15.4142C14.4561 15.0391 14.6668 14.5304 14.6668 14V5.33331H5.3335ZM3.3335 14V7.33331H12.6668V14H3.3335Z" fill="#1E1E1E"/>
<path d="M9.33317 9.3335H6.6665V11.3335H9.33317V9.3335Z" fill="#1E1E1E"/>
</svg>
